<?xml version="1.0" standalone="no"?>
<!DOCTYPE svg PUBLIC "-//W3C//DTD SVG 20010904//EN"
 "http://www.w3.org/TR/2001/REC-SVG-20010904/DTD/svg10.dtd">
<svg version="1.0" xmlns="http://www.w3.org/2000/svg"
 width="200.000000pt" height="200.000000pt" viewBox="0 0 200.000000 200.000000"
 preserveAspectRatio="xMidYMid meet">
<metadata>
Created by potrace 1.11, written by Peter Selinger 2001-2013
</metadata>
<g transform="translate(0.000000,200.000000) scale(0.100000,-0.100000)"
fill="#000000" stroke="none">
<path d="M860 1695 c-225 -49 -392 -180 -498 -390 -39 -78 -52 -126 -67 -249
-4 -31 -11 -56 -16 -56 -20 0 -198 -190 -228 -243 -42 -74 -51 -149 -25 -198
10 -19 20 -47 21 -64 2 -17 16 -43 33 -60 37 -37 94 -41 137 -9 23 17 49 22
148 27 140 7 156 10 295 43 260 63 544 178 785 317 81 46 232 146 272 179 159
133 229 214 263 304 59 160 -50 255 -293 256 -77 0 -116 -4 -192 -18 -11 -2
-35 9 -56 26 -56 44 -156 96 -234 120 -91 28 -255 35 -345 15z m290 -109 c249
-63 434 -278 456 -532 l5 -61 -48 -31 -48 -32 -6 93 c-4 50 -11 106 -17 122
-13 41 -53 124 -62 130 -4 2 -26 -28 -49 -68 -23 -40 -46 -79 -51 -87 -36 -58
-153 -256 -166 -281 l-15 -31 33 2 c18 1 53 1 78 0 l45 -1 -50 -23 c-44 -20
-66 -22 -183 -22 -74 1 -136 -2 -138 -6 -3 -4 7 -26 22 -49 21 -33 23 -43 12
-50 -7 -5 -17 -9 -23 -9 -5 0 -47 64 -93 141 -46 77 -85 139 -88 136 -2 -2
-38 -60 -79 -128 l-74 -124 49 -48 c28 -27 50 -50 50 -51 0 -4 -42 -13 -92
-22 -23 -4 -34 4 -79 58 -202 243 -187 590 36 813 153 153 368 213 575 161z
m688 -116 c23 -7 54 -25 68 -39 55 -55 11 -161 -120 -290 -36 -36 -67 -63 -70
-60 -2 2 -13 41 -24 86 -24 94 -67 186 -121 258 l-39 51 31 2 c17 2 32 4 34 6
9 9 203 -2 241 -14z m-1537 -572 c2 -81 53 -208 123 -308 25 -35 44 -65 43
-66 -1 -2 -48 -6 -104 -9 l-102 -7 -7 26 c-14 58 -100 95 -154 66 -46 -25 -32
69 23 150 34 49 153 170 168 170 5 0 9 -10 10 -22z"/>
<path d="M940 1502 c0 -5 59 -110 131 -233 72 -123 134 -229 137 -236 7 -11
169 250 179 287 11 40 -155 148 -268 175 -69 16 -179 20 -179 7z"/>
<path d="M815 1472 c-72 -31 -107 -53 -158 -101 -54 -49 -121 -146 -113 -160
5 -8 506 -13 506 -5 0 2 -30 54 -67 116 -36 62 -73 125 -80 141 -17 31 -32 33
-88 9z"/>
<path d="M528 1152 c-37 -7 -46 -210 -13 -301 19 -56 57 -131 64 -131 10 0
252 422 246 428 -5 6 -270 9 -297 4z"/>
<path d="M1647 877 c-49 -35 -63 -52 -82 -101 -127 -316 -496 -466 -808 -329
-33 14 -45 15 -83 5 -24 -7 -54 -12 -65 -12 -38 0 -14 -24 67 -67 112 -60 193
-78 339 -77 106 1 130 4 207 31 116 40 187 84 273 168 80 79 118 133 157 221
25 55 63 192 56 199 -2 2 -29 -15 -61 -38z"/>
<path d="M1330 694 c-58 -29 -147 -70 -197 -90 l-93 -37 18 -31 c16 -27 24
-31 58 -29 55 4 170 63 230 120 49 47 100 111 93 118 -2 1 -51 -21 -109 -51z"/>
<path d="M965 538 c-50 -15 -78 -28 -72 -34 2 -3 35 -8 72 -11 l67 -6 -18 29
c-10 16 -18 30 -18 30 -1 1 -14 -3 -31 -8z"/>
</g>
</svg>
