<svg width="150" height="36" viewBox="0 0 150 36" xmlns="http://www.w3.org/2000/svg" xmlns:xlink="http://www.w3.org/1999/xlink"><title>Logo</title><defs><path id="a" d="M.3165107 13.7675439h14.5523572V.24531842H.3165107z"/></defs><g fill="none" fill-rule="evenodd"><path d="M66.29906786 20.0327022l.87235714-3.99771053h.17485714c.08710715.55614473.1742143 1.12989912.3137143 1.68604386l.55832142 2.31166666h-1.91925zm-1.72735715-8.36042106L60.00003215 24.7777022h5.06025l.38378572-1.6338553h3.61189285l.4361786 1.6338553h2.9018571v-6.0263421l-2.53542854-7.07907896H64.5717107zM78.6185893 17.52998684h-.4712143v-2.27708772h.4535357c.7855714 0 1.7627143.0521886 1.7627143 1.07771053 0 1.06010088-.9077143 1.1993772-1.7450357 1.1993772M84.1899107 13.73975c-.9086786-1.38667982-2.5752857-2.0673728-4.5941786-2.0673728h-6.05475v13.1051009h4.6063929v-3.94520178h2.4428571c.9424286 0 1.7578929-.21195614 2.4226072-.59872807-.1542857-.62498246-.2365714-1.28486404-.2365714-1.97388158 0-1.70589474.51525-3.25330263 1.4136428-4.51991667M93.6598071 18.3294329c0 1.49457894-1.0118571 2.52010087-2.4602142 2.52010087-1.4483572 0-2.4602143-1.02552193-2.4602143-2.52010088 0-1.39052194.9421071-2.555 2.4602143-2.555 1.5181071 0 2.4602142 1.16447806 2.4602142 2.555m-8.1057857-4.5000658c-.3114643.3493114-.5840357.73352194-.8135357 1.14910965-.5203928.94227632-.8170714 2.0465614-.8170714 3.28147807 0 .39221492.0286071.76970176.08325 1.13214036.0681428.45176754.1790357.8785614.3252857 1.2813421.9938571 2.73717982 3.6954643 4.31276312 6.8676429 4.31276312 1.9941428 0 3.8025-.6227412 5.1177857-1.764807v-9.9199956c-1.3181786-1.17408333-3.1291072-1.83748683-5.1177857-1.83748683-2.2696072 0-4.3074643.86447368-5.6455715 2.36545614M102.2453893 11.6724092h-4.7809286v13.10510091h6.6368572v-4.20614475h-1.8559286M110.0290393 20.5714294v-8.89895615h-4.7809286V24.7775741h8.7942857v-1.0927587c-.8476071-.8606316-1.4763214-1.91625-1.8298928-3.113386h-2.1834643z" fill="inherit"/><g transform="translate(112.714 11.22)"><mask id="b" fill="inherit"><use xlink:href="#a"/></mask><path d="M7.5926893 9.63094123c-1.44835716 0-2.46053573-1.02552193-2.46053573-2.52010088 0-1.3908421.94242857-2.55532017 2.46053572-2.55532017 1.51810713 0 2.4602143 1.16447807 2.4602143 2.55532017 0 1.49457895-1.0121786 2.52010088-2.4602143 2.52010088m0-9.3856228c-3.996 0-7.2761786 2.67666666-7.2761786 6.79572368 0 .40598246.03085716.79563597.08935716 1.1692807.06267857.4002193.1587857.7809079.28317857 1.14238597.16425.47674123.37896428.91954383.639 1.32520613.31885714.4975526.70457143.9409956 1.14685714 1.324886 1.31528572 1.1420658 3.12364286 1.764807 5.11778572 1.764807 4.0133571 0 7.2761786-2.5204211 7.2761786-6.7265658 0-4.119057-3.2805-6.79572368-7.2761786-6.79572368" fill="inherit" mask="url(#b)"/></g><g fill="inherit"><path d="M135.93804643 18.47066228l2.15839286-2.87389474V11.6723772l-6.77025.20875438v4.1363465l2.0240357-.13895615v8.89927627h4.7462143v-1.3639473l-2.15839287.0448245"/><path d="M143.7678536 16.76518377v1.96395614l-2.3207143.12166668v-.06947807l1.6926428-2.06833332c.279-.33042106.5409643-.69542106.7328572-1.095l.1047857.06947807c-.1221429.34771052-.2095714.71271052-.2095714 1.07771052zm6.0200357 1.84228948l-1.6576072.12166666v-7.05666665h-5.6536071l-3.23325 4.3044386-1.14685714 1.52691666-1.01153572 1.34697808v3.44124562l1.01153572-.0208114 1.14685714-.0240132 4.5244286-.0941315-.1742143 2.624478h4.5366428l-.1221428-2.624478 1.77975.1389561v-3.68457895z"/></g><g fill="inherit"><path d="M43.7640709 15.1095216c-.3226842.2871556-.6624442.5745618-1.0097378.8614668-.3427734-3.4248192-1.6641462-6.5652391-3.6826171-9.13911552-.2609096-.33275972-.5373884-.65223913-.8208985-.9657048 5.2972935-.75522426 9.0720703-.14783753 9.8839286 1.6810881.73125 1.6470103-.9022601 4.47421512-4.3706752 7.56226542m-3.515625 2.7793456c-.8118583.5785709-1.6661552 1.152381-2.561384 1.7181727.0901507-.6076373.1373605-1.229056.1373605-1.8620011 0-2.6142185-.7907645-5.0437655-2.1450334-7.0656316L28.695851 22.433493h4.0638114c-.798298.4162002-1.6156808.823881-2.4483817 1.2215389h-7.2032645l1.4607422 2.4776568c-.3884766.1498421-.7759487.2959256-1.1621652.438l-4.2518973-7.2117151-3.8476005 6.5877906c.7709264.9123329 1.6711775 1.7099039 2.6678572 2.3754233-1.0202846.2813925-2.0187221.5269531-2.9928014.738436-3.128404-2.7778421-5.10694752-6.8180664-5.10694752-11.3155847 0-8.3570801 6.81378352-15.156103 15.18925782-15.156103 8.3752232 0 15.1887556 6.7990229 15.1887556 15.156103 0 .0483604-.004269.0957185-.0047712.1438284M10.5436747 29.7940479c-1.54034602.1626213-2.9212333.1936923-4.10625003.102484-.09316407-1.367873-1.23172434-2.4495927-2.626423-2.4495927-.66595982 0-1.27265625.2485676-1.73671875.655246-.02938058-.052119-.05625-.1049897-.08035714-.1591132-.81964286-1.8459646 1.22419085-4.9994142 5.3856864-8.4304977.05248324.5282059.12179128 1.0511498.21997766 1.5648226.62151228 3.2494188 2.13398438 6.1853719 4.27299106 8.5477655-.4502511.064397-.8952288.1232814-1.3289062.1688855M49.6175865 6.8917596c-1.2334821-2.7768398-5.8633092-3.64557322-12.7983817-2.4393192C33.6827651 1.68662573 29.5694838.00002505 25.0644615.00002505c-9.7279855 0-17.65245536 7.835389-17.7780134 17.51298394-5.5361049 4.3065824-8.00206473 8.322-6.77536272 11.0855595.1720145.3871339.40731027.736682.70262277 1.0493959-.02310268.1398192-.03816965.2823948-.03816965.4287288 0 1.4523158 1.17999442 2.6297541 2.63546317 2.6297541.93013393 0 1.74626116-.4821007 2.21509487-1.2082586.5373884.0491121 1.1094308.0736682 1.71612723.0736682.91356027 0 1.90546875-.0558776 2.97220983-.168635 5.2209542-.5512586 11.6399833-2.4215287 18.0755859-5.2662735 6.4353516-2.8447449 12.1366909-6.3322071 16.0538505-9.8199199 4.1999163-3.7400389 5.8507533-6.99923 4.7737165-9.4252689"/><path d="M25.0642857 5.01259428c-.5823382 0-1.1543806.04259725-1.7161272.11776888l7.022712 12.08809844 4.5155692-7.60035245c-2.3406529-2.81342334-5.8713448-4.60551487-9.822154-4.60551487M13.3516797 12.690173h12.9734096L22.071183 5.36845675c-3.9259486.94190046-7.1442522 3.69293135-8.7195033 7.32171625M12.304149 17.7450638c0 2.6500504.8121094 5.1106682 2.2005301 7.148571l6.4140067-10.9818227h-8.0249163c-.3824497 1.2100126-.5896205 2.497452-.5896205 3.8332517M36.2598689 23.8431865c-2.050865 1.141857-4.2378349 2.2325973-6.5199777 3.2414005-1.2392578.5477505-2.4775112 1.0584164-3.7069755 1.5314965l1.0074777 1.7089016c3.9857143-.6184119 7.3546875-3.0805332 9.2194755-6.4817986M24.8703488 29.0531564c-1.0042132.368341-1.9993862.707365-2.983259 1.0210812 1.0162668.2603444 2.0794922.4034211 3.1771206.4034211.2134486 0 .4256417-.0057632.6363281-.0162872l-.8301897-1.4082151z"/><path d="M25.064361 32.9011919c-2.5332589 0-4.9216238-.6254279-7.0237165-1.7241865-1.2425223.3127139-2.4503906.5715549-3.6168247.7777757 2.9691964 2.219317 6.6538225 3.5353215 10.6405412 3.5353215 9.1353516 0 16.6803851-6.9097757 17.6700335-15.7659954-.9532366.6998478-1.966741 1.3939325-3.0377511 2.0762403-1.7819196 6.3935972-7.6645647 11.1008444-14.6322824 11.1008444"/></g></g></svg>
