<svg viewBox="0 0 10 21" xmlns="http://www.w3.org/2000/svg"><title>Facebook</title><path d="M6 1H8v2.7H6c-.3 0-.5.2-.5.4V7.3h3s.2 0 .3.2v.2l-.6 2c0 .2-.4.4-.7.4H6c-.2 0-.3 0-.4.2v9.3c0 .4-.3.6-.6.6H3.2c-.3 0-.5 0-.5-.4v-9-.4l-.4-.2h-1c-.2 0-.4-.2-.4-.4V7.8c0-.3 0-.5.4-.5h1.2V4c0-1 .5-3 3.3-3zm0-1h2.6c.3 0 .5.2.5.5V4c0 .4 0 .6-.4.6H6.4v1.8h2.2c.4 0 .8.2 1 .4.2.3.3.7.2 1l-.5 2c-.2.6-1 1.2-1.6 1.2H6.4v8.6c0 .8-.6 1.4-1.4 1.4H3.2c-.8 0-1.4-.6-1.4-1.4V11h-.4C.6 11 0 10.3 0 9.6V7.8c0-.8.6-1.4 1.4-1.4h.4V4c0-2.5 1.5-4 4-4z" fill="inherit" fill-rule="evenodd"/></svg>
