<svg id="Layer_1" xmlns="http://www.w3.org/2000/svg" viewBox="0 2 22 21"><style>.st0{fill:#020202;}</style><title>Instagram</title><g id="_x31_---About-Us"><g id="Social"><g id="Instagram"><path d="M21.4 7.5c-.1-1.3-.3-2-.5-2.4-.2-.6-.5-1.1-.9-1.6-.5-.5-.9-.8-1.6-1-.5-.2-1.2-.4-2.4-.5-1.3-.1-1.7-.1-5-.1s-3.7 0-5 .1c-1.2.1-1.9.3-2.4.5-.6.3-1.1.6-1.6 1-.4.5-.7 1-1 1.6-.2.5-.4 1.2-.4 2.4-.1 1.3-.1 1.7-.1 5s0 3.7.1 5c.1 1.3.3 2 .5 2.4.2.6.5 1.1.9 1.6.5.5 1 .8 1.6 1 .5.2 1.2.4 2.4.5 1.3.1 1.7.1 5 .1s3.7 0 5-.1c1.3-.1 2-.3 2.4-.5.6-.2 1.1-.5 1.6-1s.8-1 1-1.6c.2-.5.4-1.2.5-2.4.1-1.3.1-1.7.1-5s-.1-3.7-.2-5zm-1 9.9c0 1.1-.2 1.7-.4 2.1-.2.5-.4.8-.8 1.2s-.7.6-1.2.8c-.4.2-1 .3-2.1.4-1.3.1-1.7.1-4.9.1s-3.6 0-4.9-.1c-1.1 0-1.7-.2-2.1-.4-.5-.2-.8-.4-1.2-.8s-.6-.7-.8-1.2c-.2-.4-.3-1-.4-2.1-.1-1.3-.1-1.7-.1-4.9s0-3.6.1-4.9c0-1.1.2-1.7.4-2.1.2-.5.4-.8.8-1.2s.7-.6 1.2-.8c.4-.2 1-.3 2.1-.4C7.4 3 7.8 3 11 3s3.6 0 4.9.1c1.1 0 1.7.2 2.1.4.5.2.8.4 1.2.8s.6.7.8 1.2c.2.4.3 1 .4 2.1.1 1.3.1 1.7.1 4.9s0 3.6-.1 4.9z" id="Fill-1"/><path d="M11 17c-2.5 0-4.5-2-4.5-4.5S8.5 8 11 8s4.5 2 4.5 4.5-2 4.5-4.5 4.5zm0-8c-1.9 0-3.5 1.6-3.5 3.5S9.1 16 11 16s3.5-1.6 3.5-3.5S12.9 9 11 9z" id="Fill-4"/><circle class="st0" cx="16.1" cy="5.5" r="1.5" id="Fill-6" transform="translate(1 .5)"/></g></g></g></svg>