<svg xmlns="http://www.w3.org/2000/svg" viewBox="0 3 24 20"><title>Load More</title><path d="M23 19c-.4 0-.7-.2-.9-.6l-1.6-3.1-3.1 1.6c-.5.2-1.1 0-1.3-.4-.2-.5 0-1.1.4-1.3l4-2c.5-.2 1.1 0 1.3.4l2 4c.2.5 0 1.1-.4 1.3-.1.1-.2.1-.4.1z"/><path d="M12 23c-4.6 0-8.7-3-10-7.2-.2-.5.1-1.1.7-1.2.5-.2 1.1.1 1.2.7 1 3.4 4.3 5.8 8 5.8 4.2 0 7.4-2.9 7.9-7 .1-.5.6-.9 1.1-.9.5.1.9.6.9 1.1-.5 5-4.7 8.7-9.8 8.7zM3 13c-.4 0-.7-.2-.9-.6l-2-4c-.2-.5 0-1.1.4-1.3.5-.2 1.1 0 1.3.4l1.6 3.1L6.5 9c.5-.2 1.1 0 1.3.4s0 1.1-.4 1.3l-4 2c-.1.3-.2.3-.4.3z"/><path d="M3.1 12.9H3c-.5-.1-.9-.6-.9-1.1C2.7 6.7 6.9 3 12 3c4.6 0 8.7 3 10 7.2.2.5-.1 1.1-.7 1.2-.5.2-1.1-.1-1.2-.7C19 7.4 15.7 5 12 5c-4.2 0-7.4 2.9-7.9 7-.1.5-.5.9-1 .9z"/></svg>