<svg viewBox="0 0 10 13" xmlns="http://www.w3.org/2000/svg"><title>Location</title><path d="M4.8217295.00327237C2.3315339.0929015.26279554 2.08583137.02379844 4.62971673c-.04882736.50877707-.0205589 1.00173724.0668164 1.4736082 0 0 .00770958.05535917.0334082.1608052.07709583.35324418.1927396.69594376.33665182 1.01755414.50112295 1.2179016 1.6601304 3.25564603 4.26083003 5.47264873.1593314.1370798.39318878.1370798.55509004 0 2.60069963-2.2143665 3.75970707-4.252111 4.2633999-5.47528488.14648208-.32161038.25955598-.6616738.33665182-1.01755415.02312875-.10280987.0334082-.1608052.0334082-.1608052C9.96916165 5.78435072 10 5.46010418 10 5.1279492 10 2.2334558 7.66399608-.0995375 4.8217295.00327237zM4.9990499 7.679743c-1.3414676 0-2.42851893-1.1150917-2.42851893-2.49116234 0-1.37607063 1.08705132-2.49116234 2.42851892-2.49116234s2.42851892 1.1150917 2.42851892 2.49116234c0 1.37607064-1.08705132 2.49116235-2.42851892 2.49116235z" fill="inherit" fill-rule="evenodd"/></svg>
