<svg viewBox="0 0 12 10" xmlns="http://www.w3.org/2000/svg"><title>Mail</title><path d="M11.6850063 9.0121798c-.2099958.2074758-.4619908.3107937-.7568249.3107937H1.07097858c-.29399412 0-.54682906-.1033179-.75598488-.3107937C.1049979 8.8047039 0 8.5552289 0 8.2637547V3.00629987c.19655607.2158757.42167157.40823184.67618648.57622848 1.61612767 1.0852583 2.72574548 1.84712306 3.32801344 2.28391432.2545149.1856363.46115077.3301134.6199076.43427132.15791684.10331792.36875262.2091558.63250735.31751364.26291474.10835783.50902982.16211675.73666526.16211675h.01343974c.22763544 0 .47291054-.05375893.73666526-.16211676.26291474-.10835784.47375053-.21419572.63250735-.31751365.15875683-.10415793.3653927-.24863504.61906762-.43427133.7593448-.54262915 1.8706426-1.3044939 3.3347333-2.28391432.2545149-.17219656.4779504-.3645527.6703066-.57622848V8.2637547c0 .2914742-.1049979.5401092-.3149937.7484251zm-.8307434-6.13859727C9.17597648 4.02603948 8.13103738 4.74338513 7.72112558 5.0256195c-.0445191.03107937-.1402772.09827802-.2847543.20159596-.1453171.1041579-.2654347.18815623-.36203277.25199496-.09575807.06383872-.21167575.1352373-.34775303.2150357-.13607728.0797984-.2645947.1394372-.3855523.17891642-.1201176.0394792-.23183535.0596388-.3343133.0596388h-.01343974c-.10247795 0-.2141957-.0201596-.3351533-.0596388-.1201176-.0394792-.24863502-.09911802-.3847123-.17891642-.13607728-.07895843-.25283494-.15119698-.34859303-.2150357-.09575808-.06383873-.21671566-.14783705-.36119277-.25199496-.1453171-.10331794-.2402352-.1705166-.2847543-.20159597-.40655188-.28223437-.99118018-.6854263-1.7547249-1.20873584-.76354474-.52246955-1.2204956-.83746325-1.37253256-.94330113-.27635448-.1856363-.53758925-.4401512-.78370433-.7643847C.12263754 1.78412432 0 1.48341032 0 1.20537588 0 .86098277.09239815.57370852.27803444.3443931.46283074.1150777.72742544 0 1.07097858 0h9.85720282c.2897942 0 .5409492.10331793.753465.31163377C11.8933221.51826963 12 .76774465 12 1.05921882c0 .34859302-.1091978.68206635-.3284334.99958-.2183957.31835364-.4913902.5896682-.8173037.8147837z" fill="inherit" fill-rule="evenodd"/></svg>
