<svg viewBox="0 0 13 13" xmlns="http://www.w3.org/2000/svg"><title>Phone</title><path d="M12.9940538 9.9612832c.0268662.2053962-.0372659.3830596-.1932631.5347235l-1.8303663 1.7653675c-.0823318.089265-.1897965.1646636-.3232607.2270625-.1325975.0623988-.2634618.1022648-.3917261.1204644-.0095331 0-.037266.0026-.0831985.0069332-.0459324.0043333-.1048647.0060666-.17853.0060666-.1741968 0-.45672492-.0285995-.84671774-.0866651-.3899928-.0580656-.8666507-.2001963-1.4308403-.4281254-.56418962-.2270625-1.2046445-.5676562-1.91963133-1.0226479-.71585348-.4541249-1.47763945-1.0781134-2.28449126-1.8719655-.64218817-.615322-1.1743117-1.20377783-1.5963706-1.76450083C1.49359897 6.8864065 1.1538719 6.36728274.8973433 5.8897582.63994802 5.4131003.44755157 4.9806416.31928726 4.59324874c-.12913095-.3882595-.21579602-.7227867-.2617285-1.00358152-.0459325-.28079482-.06413216-.5009241-.05546566-.66125448.00953317-.1603304.01386642-.2495954.01386642-.26779507.01819967-.1247977.0597989-.2513287.12393106-.3813263.06413215-.12913097.1421307-.2339957.2339957-.31372757L2.20425255.18719655C2.33251686.06239885 2.47984748 0 2.64451112 0c.1195978 0 .22532918.03379938.3163275.10053148.09186498.0667321.16986354.14906392.2339957.24699545l1.4733062 2.71435c.0823318.14299738.10486473.2989945.0684654.4679914-.03639933.16986353-.1143979.31199425-.2339957.42812544L3.828356 4.6131817c-.01819966.01733302-.03466603.04679915-.04853244.08666508-.0138664.03986593-.02079962.0736653-.02079962.10053148.03726598.18719655.1195978.40125928.2478621.64132152.11006465.21406273.27992818.4749246.50959062.7825856.2287958.307661.55465645.66212113.97671535 1.06251376.41339237.40992578.77998562.72885324 1.10151303.95678238.32066077.22706248.58932248.39432607.8051185.5009241.21492938.1074647.38045967.17159684.49485756.19412976l.17246348.03293273c.01819967 0 .0476658-.00606655.08926503-.01993296.04159924-.01299976.07106536-.02859947.08926503-.04679914l.7843189-.77565238c.16553027-.1421307.35792673-.21319607.578056-.21319607.15599714 0 .2799282.02599952.37179316.07973186h.0138664l2.6554178 1.5244386c.1932631.1161312.307661.2625952.3449269.4411252z" fill="inherit" fill-rule="evenodd"/></svg>
